<svg width="24" height="24" viewBox="0 0 24 24" fill="none" xmlns="http://www.w3.org/2000/svg">
<path d="M12 2.16218C15.204 2.16218 15.5834 2.17418 16.8491 2.23189C17.6102 2.24121 18.3639 2.38094 19.0777 2.64502C19.5953 2.84463 20.0654 3.15042 20.4577 3.54269C20.85 3.93496 21.1558 4.40502 21.3554 4.92262C21.6195 5.63637 21.7593 6.39011 21.7686 7.15109C21.8257 8.41674 21.8383 8.79615 21.8383 12C21.8383 15.2038 21.8263 15.5833 21.7686 16.8489C21.7593 17.6099 21.6195 18.3636 21.3554 19.0774C21.1558 19.595 20.85 20.065 20.4577 20.4573C20.0654 20.8496 19.5953 21.1554 19.0777 21.355C18.3639 21.6191 17.6102 21.7588 16.8491 21.7681C15.584 21.8252 15.2046 21.8378 12 21.8378C8.79543 21.8378 8.416 21.8258 7.15086 21.7681C6.38985 21.7588 5.63607 21.6191 4.92229 21.355C4.40466 21.1554 3.93458 20.8496 3.54229 20.4573C3.15 20.065 2.8442 19.595 2.64457 19.0774C2.38048 18.3636 2.24074 17.6099 2.23143 16.8489C2.17429 15.5833 2.16171 15.2038 2.16171 12C2.16171 8.79615 2.17371 8.41674 2.23143 7.15109C2.24074 6.39011 2.38048 5.63637 2.64457 4.92262C2.8442 4.40502 3.15 3.93496 3.54229 3.54269C3.93458 3.15042 4.40466 2.84463 4.92229 2.64502C5.63607 2.38094 6.38985 2.24121 7.15086 2.23189C8.41657 2.17475 8.796 2.16218 12 2.16218ZM12 0C8.74286 0 8.33257 0.0137136 7.05257 0.0719965C6.0566 0.0918058 5.0712 0.280376 4.13829 0.629684C3.338 0.931193 2.61314 1.40368 2.01429 2.01419C1.4032 2.61323 0.930282 3.33847 0.628571 4.13923C0.279246 5.0721 0.0906674 6.05745 0.0708572 7.05338C0.0137143 8.33217 0 8.74244 0 11.9994C0 15.2564 0.0137142 15.6667 0.072 16.9466C0.0918102 17.9425 0.280389 18.9279 0.629714 19.8608C0.93109 20.6614 1.40361 21.3867 2.01429 21.9858C2.61347 22.5965 3.33873 23.069 4.13943 23.3703C5.07234 23.7196 6.05774 23.9082 7.05371 23.928C8.33371 23.9851 8.74229 24 12.0011 24C15.26 24 15.6686 23.9863 16.9486 23.928C17.9445 23.9082 18.9299 23.7196 19.8629 23.3703C20.6598 23.0614 21.3834 22.5896 21.9876 21.9851C22.5917 21.3806 23.0631 20.6567 23.3714 19.8596C23.7208 18.9268 23.9093 17.9414 23.9291 16.9455C23.9863 15.6667 24 15.2564 24 11.9994C24 8.74244 23.9863 8.33217 23.928 7.05224C23.9082 6.05631 23.7196 5.07096 23.3703 4.13809C23.0689 3.33743 22.5964 2.6122 21.9857 2.01305C21.3865 1.4024 20.6613 0.929903 19.8606 0.628541C18.9277 0.279233 17.9423 0.0906631 16.9463 0.0708538C15.6674 0.0137137 15.2571 0 12 0Z" fill="#110319"/>
<path d="M11.9978 5.83691C10.779 5.83691 9.58757 6.19831 8.57419 6.8754C7.5608 7.55249 6.77097 8.51486 6.30456 9.64081C5.83815 10.7668 5.71612 12.0057 5.95389 13.2011C6.19166 14.3964 6.77856 15.4943 7.64037 16.3561C8.50219 17.2179 9.6002 17.8047 10.7956 18.0425C11.9909 18.2803 13.23 18.1582 14.356 17.6918C15.482 17.2255 16.4444 16.4357 17.1215 15.4223C17.7986 14.409 18.1601 13.2176 18.1601 11.9989C18.1601 10.3646 17.5108 8.79732 16.3552 7.64172C15.1995 6.48612 13.6321 5.83691 11.9978 5.83691ZM11.9978 15.9987C11.2066 15.9987 10.4333 15.7641 9.77549 15.3246C9.11769 14.8851 8.605 14.2604 8.30225 13.5296C7.9995 12.7987 7.92029 11.9945 8.07463 11.2186C8.22897 10.4427 8.60993 9.73 9.16934 9.17061C9.72875 8.61123 10.4415 8.23029 11.2174 8.07595C11.9933 7.92162 12.7976 8.00083 13.5285 8.30356C14.2594 8.6063 14.8841 9.11897 15.3236 9.77673C15.7632 10.4345 15.9978 11.2078 15.9978 11.9989C15.9978 13.0597 15.5763 14.0771 14.8262 14.8272C14.076 15.5773 13.0586 15.9987 11.9978 15.9987Z" fill="#110319"/>
<path d="M18.4044 7.03318C19.1997 7.03318 19.8444 6.3885 19.8444 5.59325C19.8444 4.798 19.1997 4.15332 18.4044 4.15332C17.6091 4.15332 16.9644 4.798 16.9644 5.59325C16.9644 6.3885 17.6091 7.03318 18.4044 7.03318Z" fill="#110319"/>
</svg>
