<svg width="24" height="24" viewBox="0 0 24 24" fill="none" xmlns="http://www.w3.org/2000/svg">
<g id="ep:arrow-up">
<path id="Vector" d="M11.4571 8.07001L3.49206 16.4295C3.35909 16.569 3.28491 16.7543 3.28491 16.947C3.28491 17.1397 3.35909 17.325 3.49206 17.4645L3.50106 17.4735C3.56552 17.5414 3.6431 17.5954 3.7291 17.6323C3.8151 17.6692 3.90772 17.6883 4.00131 17.6883C4.09489 17.6883 4.18751 17.6692 4.27351 17.6323C4.35951 17.5954 4.4371 17.5414 4.50155 17.4735L12.0016 9.60151L19.4986 17.4735C19.563 17.5414 19.6406 17.5954 19.7266 17.6323C19.8126 17.6692 19.9052 17.6883 19.9988 17.6883C20.0924 17.6883 20.185 17.6692 20.271 17.6323C20.357 17.5954 20.4346 17.5414 20.4991 17.4735L20.5081 17.4645C20.641 17.325 20.7152 17.1397 20.7152 16.947C20.7152 16.7543 20.641 16.569 20.5081 16.4295L12.5431 8.07001C12.473 7.99649 12.3888 7.93796 12.2954 7.89797C12.2021 7.85798 12.1016 7.83736 12.0001 7.83736C11.8985 7.83736 11.798 7.85798 11.7047 7.89797C11.6113 7.93796 11.5271 7.99649 11.4571 8.07001Z" fill="#918398"/>
</g>
</svg>
