<svg width="50" height="50" viewBox="0 0 33 31" fill="none" xmlns="http://www.w3.org/2000/svg">
<g id="ph:arrow-up-thin">
<path id="Vector" d="M14.9755 6.53463C15.022 6.57875 15.0589 6.63118 15.0841 6.68893C15.1094 6.74669 15.1225 6.80863 15.1227 6.87121C15.1228 6.9338 15.1101 6.99581 15.0851 7.05368C15.0602 7.11156 15.0236 7.16418 14.9773 7.20853L6.87257 14.9881L27.6133 14.9363C27.7456 14.936 27.8726 14.9858 27.9664 15.0749C28.0602 15.164 28.1131 15.285 28.1134 15.4113C28.1138 15.5376 28.0615 15.6589 27.9682 15.7484C27.875 15.838 27.7482 15.8885 27.616 15.8888L6.87518 15.9406L15.0224 23.6796C15.0689 23.7237 15.1058 23.7761 15.131 23.8339C15.1562 23.8916 15.1693 23.9536 15.1695 24.0162C15.1697 24.0787 15.1569 24.1407 15.132 24.1986C15.1071 24.2565 15.0705 24.3091 15.0243 24.3535C14.978 24.3978 14.9231 24.4331 14.8626 24.4572C14.8022 24.4813 14.7373 24.4938 14.6718 24.4939C14.6062 24.4941 14.5413 24.4819 14.4807 24.4581C14.4201 24.4343 14.365 24.3994 14.3185 24.3552L5.31743 15.8052C5.27093 15.7611 5.234 15.7086 5.20874 15.6509C5.18349 15.5931 5.1704 15.5312 5.17023 15.4686C5.17005 15.406 5.1828 15.344 5.20775 15.2861C5.23269 15.2282 5.26933 15.1756 5.31558 15.1313L14.2697 6.53639C14.3159 6.492 14.3708 6.45673 14.4313 6.43262C14.4918 6.4085 14.5567 6.396 14.6222 6.39584C14.6878 6.39567 14.7527 6.40785 14.8133 6.43166C14.8739 6.45548 14.929 6.49047 14.9755 6.53463Z" fill="#FFD233"/>
</g>
</svg>
