<svg xmlns="http://www.w3.org/2000/svg" width="50" height="50" viewBox="0 0 33 31" fill="none">
  <rect width="30.48" height="31.9205" transform="matrix(-0.00397419 0.999992 -0.999993 -0.00362359 32.4808 0.275391)" fill="#AD21FC" />
  <path d="M18.0668 24.3727C18.0206 24.3283 17.984 24.2756 17.9592 24.2177C17.9343 24.1598 17.9216 24.0978 17.9219 24.0352C17.9221 23.9726 17.9353 23.9107 17.9606 23.853C17.9859 23.7952 18.0229 23.7428 18.0695 23.6988L26.2263 15.969L5.48558 15.8938C5.3533 15.8933 5.22664 15.8427 5.13346 15.7531C5.04028 15.6634 4.98821 15.5421 4.98871 15.4158C4.98922 15.2895 5.04225 15.1685 5.13613 15.0795C5.23002 14.9906 5.35708 14.9408 5.48936 14.9413L26.2301 15.0165L18.1349 7.22779C18.0888 7.18337 18.0522 7.13071 18.0274 7.0728C18.0025 7.0149 17.9899 6.95289 17.9901 6.89031C17.9904 6.82774 18.0035 6.76582 18.0288 6.7081C18.0541 6.65038 18.0911 6.59798 18.1376 6.5539C18.1841 6.50982 18.2393 6.47492 18.2999 6.45119C18.3606 6.42746 18.4255 6.41537 18.491 6.41561C18.5566 6.41585 18.6214 6.42841 18.6819 6.45258C18.7423 6.47674 18.7972 6.51204 18.8434 6.55646L27.7869 15.1614C27.8331 15.2058 27.8696 15.2585 27.8945 15.3164C27.9194 15.3743 27.9321 15.4363 27.9318 15.4989C27.9316 15.5615 27.9184 15.6234 27.8931 15.6811C27.8677 15.7389 27.8307 15.7913 27.7842 15.8353L18.7725 24.3752C18.726 24.4193 18.6709 24.4543 18.6103 24.478C18.5496 24.5018 18.4847 24.5139 18.4191 24.5136C18.3536 24.5134 18.2887 24.5008 18.2283 24.4766C18.1678 24.4524 18.113 24.4171 18.0668 24.3727Z" fill="#FEFEFE"/>
</svg>