<svg width="24" height="24" viewBox="0 0 24 24" fill="none" xmlns="http://www.w3.org/2000/svg">
<path d="M24 3.96522C24 2.92174 23.6 2 22.8 1.2C22 0.4 21.0783 0 20.0348 0H3.96522C2.92174 0 2 0.4 1.2 1.2C0.4 2 0 2.92174 0 3.96522V20.0348C0 21.0783 0.4 22 1.2 22.8C2 23.6 2.92174 24 3.96522 24H12V14.9217H9.07826V10.9565H12V9.3913C12 8.03478 12.4435 6.84348 13.3304 5.81739C14.2174 4.7913 15.2696 4.27826 16.487 4.27826H19.7217V8.24348H16.487C16.313 8.24348 16.1478 8.34783 15.9913 8.55652C15.8348 8.76522 15.7565 9.02609 15.7565 9.33913V10.9565H19.7217V14.9217H15.7565V24H20.0348C21.0783 24 22 23.6 22.8 22.8C23.6 22 24 21.0783 24 20.0348V3.96522Z" fill="#110319"/>
</svg>
